<svg xmlns="http://www.w3.org/2000/svg" viewBox="27 66 143 69" preserveAspectRatio="xMidYMid meet" aria-label="Stubb">
  <g transform="translate(0,200) scale(0.1,-0.1)" fill="currentColor" stroke="none">
    <path d="M1565 1324 c-9 -10 -46 -76 -81 -148 -74 -149 -79 -156 -108 -156 -12 0 -38 -9 -59 -20 -20 -11 -39 -20 -42 -20 -7 0 20 69 69 178 61 132 70 161 50 169 -8 3 -21 -3 -29 -13 -15 -20 -84 -185 -130 -312 -28 -75 -67 -132 -90 -132 -14 0 -31 53 -22 67 3 5 -5 13 -18 19 -21 10 -25 8 -35 -17 -17 -41 -47 -66 -62 -51 -9 9 -9 25 1 70 17 79 18 84 4 89 -16 6 -32 -27 -48 -102 -14 -70 -44 -120 -76 -130 -34 -11 -49 12 -49 74 0 56 35 218 50 235 5 4 41 19 82 33 40 13 77 29 82 34 16 15 -5 11 -83 -16 l-73 -25 7 23 c28 89 7 106 -30 23 -25 -57 -31 -61 -107 -72 -27 -3 -48 -11 -48 -16 0 -10 23 -8 104 8 25 6 28 4 21 -12 -25 -60 -57 -214 -51 -247 15 -78 80 -92 142 -31 26 27 39 33 47 25 19 -19 38 -12 72 24 l33 34 6 -24 c9 -37 39 -49 76 -30 16 8 34 24 40 35 13 23 30 26 30 5 0 -22 33 -35 66 -26 19 5 41 3 63 -6 80 -34 186 36 160 104 -7 20 -4 22 34 28 23 3 64 6 91 8 32 1 51 7 54 16 4 11 -5 13 -44 7 -119 -15 -191 -18 -198 -8 -3 6 18 55 49 109 63 111 92 190 77 205 -6 6 -15 3 -27 -8z m-175 -332 c0 -14 -50 -82 -69 -91 -21 -12 -41 3 -41 30 0 24 56 69 86 69 13 0 24 -3 24 -8z m98 -49 c2 -19 -4 -35 -16 -46 -24 -22 -81 -31 -102 -18 -12 9 -11 14 11 38 15 15 34 41 44 56 16 25 20 26 39 14 12 -8 22 -27 24 -44z"/>
    <path d="M534 1281 c-44 -20 -81 -60 -90 -98 -11 -41 25 -98 108 -178 119 -114 137 -172 79 -253 -44 -63 -173 -106 -244 -83 -78 26 -112 116 -66 175 11 14 16 26 10 26 -17 0 -50 -51 -57 -88 -9 -44 15 -91 59 -118 42 -25 164 -25 222 0 103 44 155 103 155 177 0 58 -22 91 -114 175 -120 108 -142 161 -91 222 28 33 100 58 140 48 59 -15 85 -84 49 -134 -18 -26 -4 -30 18 -4 40 44 28 111 -23 137 -38 20 -106 18 -155 -4z"/>
    <path d="M1110 1041 c-12 -24 -13 -44 -1 -37 5 4 11 0 14 -6 6 -18 14 -8 22 30 5 25 3 32 -9 32 -8 0 -20 -9 -26 -19z"/>
  </g>
</svg>
